<svg width="50" height="50" viewBox="0 0 50 50" fill="none" xmlns="http://www.w3.org/2000/svg">
<path d="M37.7884 38.1838L30.626 35.1163C30.0308 34.8614 29.6462 34.2783 29.6462 33.6308V30.7553C32.251 29.2559 34.069 26.537 34.3147 23.3838H34.7849C35.5435 23.3838 36.2705 23.0611 36.7796 22.4985C37.2884 21.9361 37.5366 21.1784 37.4606 20.4195C37.399 19.805 37.1125 19.2513 36.6852 18.8293C36.689 18.7991 36.6915 18.7686 36.6915 18.7374V16.3889C36.6915 12.5629 34.8442 9.16019 31.9946 7.02594C31.9938 3.16954 28.8562 0.000244141 24.9997 0.000244141C21.1451 0.000244141 18.009 3.16622 18.0049 7.01989C17.6613 7.27701 17.3297 7.55357 17.0127 7.85025C14.8502 9.87376 13.5449 12.6098 13.3371 15.5545C13.3086 15.9581 13.6126 16.3082 14.0161 16.3368C14.4178 16.3646 14.7698 16.0613 14.7983 15.6578C14.9799 13.0829 16.1219 10.6901 18.0136 8.91996C19.9142 7.14137 22.3952 6.16199 24.9997 6.16199C30.6389 6.16199 35.2267 10.7497 35.2267 16.389V18.0595C35.047 18.0241 34.862 18.0051 34.6731 18.0051H33.6107C33.1513 18.0051 32.7775 17.6314 32.7775 17.1719V16.6552C32.7775 15.0721 31.882 13.6942 30.5701 13.0013C31.2444 12.6015 31.6321 12.328 31.6879 12.2881C32.0169 12.0531 32.093 11.5962 31.8582 11.2671C31.6235 10.938 31.1662 10.8614 30.8369 11.0958C30.787 11.1314 25.7641 14.6592 18.6374 15.5739C17.8304 15.6775 17.2218 16.363 17.2218 17.1718C17.2218 17.6313 16.8481 18.005 16.3886 18.005H15.2145C14.4559 18.005 13.729 18.3278 13.2198 18.8903C12.711 19.4526 12.4628 20.2103 12.5387 20.9691C12.6743 22.3232 13.8986 23.3839 15.3262 23.3839H15.6844C15.8554 25.6035 16.8019 27.6672 18.3929 29.2582C18.9859 29.8512 19.645 30.3544 20.353 30.7616V33.6308C20.353 34.2783 19.9685 34.8614 19.3732 35.1163L12.2109 38.1838C10.4995 38.9168 9.39355 40.5933 9.39355 42.455V49.2672C9.39355 49.6718 9.72138 49.9996 10.126 49.9996C10.5306 49.9996 10.8584 49.6718 10.8584 49.2672V42.455C10.8584 41.1801 11.6156 40.0321 12.7876 39.5303L17.2217 37.6313V42.2723H14.823C13.5558 42.2723 12.525 43.3032 12.525 44.5703V47.7015C12.525 48.9687 13.5559 49.9995 14.823 49.9995C15.2276 49.9995 15.5554 49.6717 15.5554 49.2671C15.5554 48.8625 15.2276 48.5347 14.823 48.5347C14.3635 48.5347 13.9898 48.161 13.9898 47.7015V44.5703C13.9898 44.1108 14.3635 43.7371 14.823 43.7371H21.0855C21.545 43.7371 21.9187 44.1108 21.9187 44.5703V47.7015C21.9187 48.161 21.545 48.5347 21.0855 48.5347C20.681 48.5347 20.3531 48.8625 20.3531 49.2671C20.3531 49.6717 20.681 49.9995 21.0855 49.9995C22.3527 49.9995 23.3836 48.9686 23.3836 47.7015V44.5703C23.3836 43.3031 22.3526 42.2723 21.0855 42.2723H18.6867V38.1107L23.725 41.4696C24.1122 41.7277 24.5559 41.8567 24.9998 41.8567C25.4435 41.8567 25.8874 41.7276 26.2746 41.4695L31.3128 38.1106V43.9266C29.9665 44.2561 28.9643 45.4722 28.9643 46.9187C28.9643 48.6175 30.3463 49.9996 32.0452 49.9996C33.744 49.9996 35.126 48.6176 35.126 46.9187C35.126 45.4723 34.1239 44.2562 32.7776 43.9266V37.6312L37.2119 39.5302C38.3837 40.0321 39.1409 41.1801 39.1409 42.4549V49.2672C39.1409 49.6718 39.4688 49.9996 39.8734 49.9996C40.2779 49.9996 40.6058 49.6718 40.6058 49.2672V42.455C40.6057 40.5933 39.4997 38.9168 37.7884 38.1838ZM19.5537 6.0406C20.0075 3.44483 22.276 1.46507 24.9997 1.46507C27.7253 1.46507 29.9951 3.44766 30.4466 6.04617C28.819 5.18553 26.9654 4.69716 24.9997 4.69716C23.0788 4.69716 21.217 5.16385 19.5537 6.0406ZM17.1212 22.6514C17.1212 22.4572 17.0441 22.271 16.9067 22.1335C16.7694 21.9962 16.583 21.919 16.3887 21.919L15.3261 21.9191C14.6419 21.9191 14.0579 21.4378 13.9963 20.8232C13.961 20.4703 14.071 20.1329 14.3059 19.8731C14.5379 19.6168 14.8691 19.4697 15.2145 19.4697H16.3886C17.6558 19.4697 18.6866 18.4388 18.6866 17.1686C18.6866 17.0966 18.7443 17.0369 18.8238 17.0268C23.0177 16.4884 26.4728 15.121 28.7436 13.9918C30.1689 14.0425 31.3126 15.2177 31.3126 16.655V17.1717C31.3126 18.4389 32.3435 19.4697 33.6106 19.4697H34.673C35.3572 19.4697 35.9414 19.9511 36.0029 20.5655C36.0382 20.9184 35.9283 21.2558 35.6933 21.5156C35.4614 21.772 35.1302 21.919 34.7847 21.919L33.6105 21.9191C33.206 21.9191 32.8782 22.247 32.8782 22.6515C32.8782 26.9957 29.344 30.53 24.9997 30.53C22.8952 30.53 20.9167 29.7105 19.4286 28.2225C17.9407 26.7344 17.1212 24.7559 17.1212 22.6514ZM25.4619 40.2506C25.1812 40.4378 24.8182 40.4379 24.5374 40.2507L19.2837 36.7482L19.9501 36.4629C21.0848 35.9769 21.818 34.8652 21.818 33.6308V31.4414C22.8247 31.805 23.8975 31.9949 24.9998 31.9949C26.1165 31.9949 27.1878 31.7973 28.1814 31.4364V33.6308C28.1814 34.8652 28.9146 35.9769 30.0492 36.4629L30.7156 36.7482L25.4619 40.2506ZM33.661 46.9187C33.661 47.8098 32.9361 48.5348 32.045 48.5348C31.1539 48.5348 30.4289 47.8098 30.4289 46.9187C30.4289 46.0276 31.1539 45.3027 32.045 45.3027C32.9361 45.3027 33.661 46.0276 33.661 46.9187Z" fill="#FF375F"/>
<path d="M21.0859 19.5703C20.6813 19.5703 20.3535 19.8981 20.3535 20.3027V21.0854C20.3535 21.4899 20.6813 21.8177 21.0859 21.8177C21.4905 21.8177 21.8184 21.4899 21.8184 21.0854V20.3027C21.8184 19.8982 21.4905 19.5703 21.0859 19.5703Z" fill="#FF375F"/>
<path d="M28.9141 21.8177C29.3187 21.8177 29.6465 21.4899 29.6465 21.0854V20.3027C29.6465 19.8981 29.3187 19.5703 28.9141 19.5703C28.5095 19.5703 28.1816 19.8981 28.1816 20.3027V21.0854C28.1816 21.4899 28.5095 21.8177 28.9141 21.8177Z" fill="#FF375F"/>
<path d="M27.9135 24.5343C27.6561 24.2221 27.1947 24.1778 26.8825 24.4349C26.4079 24.8262 25.7216 25.0506 24.9999 25.0506C24.2781 25.0506 23.5919 24.8262 23.1173 24.4349C22.8051 24.1775 22.3435 24.222 22.0863 24.5343C21.8289 24.8464 21.8734 25.3081 22.1856 25.5654C22.9288 26.1782 23.9284 26.5156 24.9999 26.5156C26.0713 26.5156 27.0709 26.1782 27.8142 25.5654C28.1264 25.3081 28.1708 24.8465 27.9135 24.5343Z" fill="#FF375F"/>
<path d="M48.4286 35.6905L45.3377 34.6602C45.317 34.6533 45.3031 34.6339 45.3031 34.6123V32.5982C46.7206 31.6175 47.6515 29.9813 47.6515 28.131V25.7825C47.6515 23.652 45.9182 21.9187 43.7879 21.9187H40.6566C38.5263 21.9187 36.793 23.652 36.793 25.7825V28.131C36.793 29.9813 37.724 31.6176 39.1415 32.5983V34.6123C39.1415 34.634 39.1275 34.6533 39.107 34.6601L38.0767 35.0036C37.6929 35.1315 37.4854 35.5464 37.6134 35.93C37.7157 36.237 38.0015 36.431 38.3081 36.431C38.3849 36.431 38.463 36.4188 38.5397 36.3933L39.1994 36.1733L41.3132 37.7586C41.5808 37.9594 41.9015 38.0597 42.2224 38.0597C42.5431 38.0597 42.8638 37.9594 43.1315 37.7586L44.6213 36.6414V40.0443C43.7123 40.3508 43.0556 41.2109 43.0556 42.2221C43.0556 43.4893 44.0866 44.5201 45.3537 44.5201C46.6208 44.5201 47.6517 43.4892 47.6517 42.2221C47.6517 41.211 46.9951 40.3509 46.0861 40.0443V36.4537L47.9657 37.0802C48.3064 37.1938 48.5354 37.5113 48.5354 37.8706V43.7877C48.5354 44.1923 48.8632 44.5201 49.2678 44.5201C49.6724 44.5201 50.0002 44.1923 50.0002 43.7877V37.8706C50 36.8798 49.3684 36.0037 48.4286 35.6905ZM38.2576 28.1309V25.7824C38.2576 24.4596 39.3338 23.3835 40.6564 23.3835H43.7877C45.1104 23.3835 46.1865 24.4597 46.1865 25.7824V28.1309C46.1865 30.317 44.408 32.0955 42.222 32.0955C40.0359 32.0955 38.2576 30.317 38.2576 28.1309ZM42.2522 36.5868C42.2345 36.6 42.2096 36.6001 42.1919 36.5867L40.4504 35.2806C40.5504 35.0772 40.606 34.8499 40.606 34.6122V33.3147C41.1167 33.4743 41.6595 33.5603 42.2221 33.5603C42.7846 33.5603 43.3274 33.4742 43.8382 33.3147V34.6122C43.8382 34.8499 43.8939 35.0772 43.9938 35.2806L42.2522 36.5868ZM45.3534 43.0553C44.8939 43.0553 44.5202 42.6815 44.5202 42.2221C44.5202 41.7626 44.8939 41.3888 45.3534 41.3888C45.8129 41.3888 46.1866 41.7626 46.1866 42.2221C46.1866 42.6815 45.8129 43.0553 45.3534 43.0553Z" fill="#002856"/>
<path d="M6.86864 37.7581C7.13631 37.959 7.45702 38.0593 7.77792 38.0593C8.09862 38.0593 8.41932 37.959 8.68709 37.7582L10.8009 36.173L11.4605 36.3928C11.5373 36.4185 11.6154 36.4306 11.6922 36.4306C11.9988 36.4306 12.2845 36.2366 12.3869 35.9295C12.5148 35.5458 12.3074 35.131 11.9236 35.0032L10.8934 34.6598C10.8727 34.6529 10.8589 34.6335 10.8589 34.6119V32.5979C12.2763 31.6173 13.2074 29.9811 13.2074 28.1308V24.9996C13.2074 23.3008 11.8254 21.9187 10.1264 21.9187H5.42938C3.73056 21.9187 2.34853 23.3007 2.34853 24.9996V28.1308C2.34853 29.9811 3.27949 31.6172 4.69696 32.5978V34.6119C4.69696 34.6336 4.683 34.6529 4.66239 34.6597L1.57148 35.6901C0.631542 36.0034 0 36.8794 0 37.8702V43.7871C0 44.1917 0.327831 44.5195 0.732421 44.5195C1.13701 44.5195 1.46484 44.1917 1.46484 43.7871V37.8702C1.46484 37.5109 1.69384 37.1934 2.03466 37.0798L4.69696 36.1923V39.9234H3.86376C3.02822 39.9234 2.34853 40.6032 2.34853 41.4387V43.0043C2.34853 43.8399 3.02822 44.5195 3.86376 44.5195C4.26835 44.5195 4.59618 44.1917 4.59618 43.7871C4.59618 43.3825 4.26835 43.0547 3.86376 43.0547C3.83603 43.0547 3.81337 43.0322 3.81337 43.0043V41.4387C3.81337 41.4109 3.83593 41.3882 3.86376 41.3882H6.99501C7.02284 41.3882 7.04549 41.4108 7.04549 41.4387V43.0043C7.04549 43.0321 7.02294 43.0547 6.99501 43.0547C6.59042 43.0547 6.26259 43.3825 6.26259 43.7871C6.26259 44.1917 6.59042 44.5195 6.99501 44.5195C7.83055 44.5195 8.51034 43.8399 8.51034 43.0043V41.4387C8.51034 40.6032 7.83055 39.9234 6.99501 39.9234H6.1618V37.228L6.86864 37.7581ZM5.42938 23.3835H10.1263C11.0175 23.3835 11.7425 24.1085 11.7425 24.9996V26.585C9.39324 26.3891 7.74569 25.2982 7.10907 24.8032C6.57264 24.3861 5.81747 24.3803 5.27294 24.7886L3.81347 25.8833V24.9996C3.81337 24.1085 4.53827 23.3835 5.42938 23.3835ZM3.81337 28.1308V27.7142L6.15175 25.9603C6.16298 25.9518 6.18563 25.9408 6.20975 25.9596C7.14579 26.6872 9.05262 27.8669 11.7424 28.0542V28.1307C11.7424 30.3167 9.96385 32.0952 7.77782 32.0952C5.59179 32.0952 3.81337 30.3168 3.81337 28.1308ZM7.77792 33.5601C8.34041 33.5601 8.88328 33.4741 9.39393 33.3145V34.612C9.39393 34.8497 9.44959 35.077 9.54959 35.2804L7.80809 36.5863C7.79032 36.5997 7.76532 36.5997 7.74764 36.5863L6.00614 35.2803C6.10614 35.0769 6.1618 34.8496 6.1618 34.6119V33.3144C6.67245 33.4741 7.21532 33.5601 7.77792 33.5601Z" fill="#002856"/>
</svg>
